<svg xmlns:dc="http://purl.org/dc/elements/1.1/" xmlns:cc="http://creativecommons.org/ns#" xmlns:rdf="http://www.w3.org/1999/02/22-rdf-syntax-ns#" xmlns:svg="http://www.w3.org/2000/svg" xmlns="http://www.w3.org/2000/svg" xmlns:xlink="http://www.w3.org/1999/xlink" id="svg686506" viewBox="0 0 1024 768" height="768px" width="1024px" version="1.1">
  <metadata id="metadata686512">
    <rdf:rdf>
      <cc:work rdf:about="">
        <dc:format>image/svg+xml</dc:format>
        <dc:type rdf:resource="http://purl.org/dc/dcmitype/StillImage"></dc:type>
      </cc:work>
    </rdf:rdf>
  </metadata>
  <defs id="defs686510"></defs>
  <linearGradient spreadMethod="pad" y2="30%" x2="-10%" y1="120%" x1="30%" id="3d_gradient2-logo-077b519e-e550-409c-b3d8-107bc687e4d4">
    <stop id="stop686487" stop-opacity="1" stop-color="#ffffff" offset="0%"></stop>
    <stop id="stop686489" stop-opacity="1" stop-color="#000000" offset="100%"></stop>
  </linearGradient>
  <linearGradient gradientTransform="rotate(-30)" spreadMethod="pad" y2="30%" x2="-10%" y1="120%" x1="30%" id="3d_gradient3-logo-077b519e-e550-409c-b3d8-107bc687e4d4">
    <stop id="stop686492" stop-opacity="1" stop-color="#ffffff" offset="0%"></stop>
    <stop id="stop686494" stop-opacity="1" stop-color="#cccccc" offset="50%"></stop>
    <stop id="stop686496" stop-opacity="1" stop-color="#000000" offset="100%"></stop>
  </linearGradient>
  <g id="logo-group">
    <image xlink:href="" id="container" x="272" y="144" width="480" height="480" style="display: none;" transform="translate(0 0)"></image>
    <g id="logo-center" transform="translate(5.684341886080802e-14 0)">
      <image xlink:href="" id="icon_container" style="display: none;"></image>
      <g id="slogan" style="font-style:normal;font-weight:700;font-size:32px;line-height:1;font-family:'Brandmark1 Bold';font-variant-ligatures:none;text-align:center;text-anchor:middle" transform="translate(0 0)"></g>
      <g id="title" style="font-style:normal;font-weight:normal;font-size:72px;line-height:1;font-family:'Brandmark Sans 50 Spectrum';font-variant-ligatures:normal;text-align:center;text-anchor:middle" transform="translate(0 0)">
        <g id="path686515" aria-label="s" transform="translate(0 304.95016) translate(230.85392205000005 41.85968) scale(1.57) translate(-345.95394 47.376)"> <path d="M82.43312,110.51083h6.40869c1.08008,0,1.94434-.72009,2.23242-1.65619l6.4082-23.97809c1.72852-6.12048,6.76855-9.93683,12.96143-9.93683l7.12842.07202c3.3125,0,5.90479,2.59222,5.97656,5.90448-.07178,3.31232-2.66406,5.90454-5.97656,5.90454h-6.40869c-1.08008,0-1.94385.64807-2.23193,1.58411l-6.40869,23.97809c-1.72803,6.12054-6.76855,9.93683-12.96094,9.93683l-7.12891-.07196c-3.31201,0-5.9043-2.59222-5.97607-5.90454.07178-3.31226,2.66406-5.83246,5.97607-5.83246Z" class="c1" stroke-width="0" transform="translate(269.49689 -122.31572)" stroke-linejoin="miter" stroke-miterlimit="2" fill="#ffffff" stroke="#ffffff"></path> </g>
        <g id="path686517" aria-label="c" transform="translate(0 304.95016) translate(319.46040455 41.181439999999995) scale(1.57) translate(-397.39119 47.808)"> <path d="M119.51613,81.49227c2.23218,2.37622,2.23218,5.97656,0,8.35272-2.37622,2.23224-5.97656,2.23224-8.35272.07202-2.16022-2.3042-5.32843-3.60028-8.64075-3.60028-6.69659,0-12.24103,5.47241-12.24103,12.24103,0,6.69659,5.54443,12.16907,12.24103,12.16907,3.31232,0,6.48053-1.29614,8.64075-3.60034,2.37616-2.16016,5.9765-2.16016,8.35272.14404,2.23218,2.37616,2.23218,5.9765,0,8.35272l-.14404.07202c-4.32031,4.24835-10.29688,6.9126-16.84943,6.9126-13.24915,0-24.05011-10.80096-24.05011-24.05011s10.80096-24.05011,24.05011-24.05011c6.55255,0,12.60114,2.59229,16.99347,6.98462Z" class="c1" stroke-width="0" transform="translate(318.91864 -122.31565)" stroke-linejoin="miter" stroke-miterlimit="2" fill="#ffffff" stroke="#ffffff"></path> </g>
        <g id="path686519" aria-label="o" transform="translate(0 304.95016) translate(404.36305295 41.181439999999995) scale(1.57) translate(-446.46931 47.808)"> <path d="M75.88038,98.55777c0-13.24915,11.01709-24.05011,24.19434-24.05011,13.24902,0,24.05005,10.80096,24.05005,24.05011,0,13.46515-10.80103,24.26611-24.05005,24.26611-13.17725,0-24.19434-10.80096-24.19434-24.26611ZM100.07472,110.94284c6.69653,0,12.16895-5.47247,12.16895-12.38507,0-6.76862-5.47241-12.24103-12.16895-12.24103-6.7688,0-12.38525,5.47241-12.38525,12.24103,0,6.9126,5.61646,12.38507,12.38525,12.38507Z" class="c1" stroke-width="0" transform="translate(370.58893 -122.31566)" stroke-linejoin="miter" stroke-miterlimit="2" fill="#ffffff" stroke="#ffffff"></path> </g>
        <g id="path686521" aria-label="r" transform="translate(0 304.95016) translate(499.13021545 41.181439999999995) scale(1.57) translate(-501.83056 47.808)"> <path d="M91.68605,98.55777v17.78552c0,3.31232-2.59229,5.9765-5.83252,5.9765-3.3125,0-5.97656-2.66418-5.97656-5.9765v-17.78552c0-13.24915,10.80078-24.05011,24.05005-24.05011,6.55249,0,12.60107,2.59229,16.99341,6.98462,2.23218,2.37622,2.23218,5.97656,0,8.35272-2.37622,2.23224-5.97656,2.23224-8.35254.07202-2.1604-2.3042-5.32861-3.60028-8.64087-3.60028-6.69653,0-12.24097,5.47241-12.24097,12.24103Z" class="c1" stroke-width="0" transform="translate(421.95359 -122.31566)" stroke-linejoin="miter" stroke-miterlimit="2" fill="#ffffff" stroke="#ffffff"></path> </g>
        <g id="path686523" aria-label="e" transform="translate(0 304.95016) translate(580.88895455 41.181439999999995) scale(1.57) translate(-548.90619 47.808)"> <path d="M100.07202,74.19666c-13.15771,0-24.1582,10.78516-24.1582,24.01416,0,3.30713,2.66064,5.96777,5.96777,5.96777h36.23682c3.30713,0,5.96777-2.66064,5.96777-5.96777,0-13.229-10.78467-24.01416-24.01416-24.01416ZM100.07202,85.98816c4.56934,0,8.56543,2.5542,10.63916,6.32715h-21.45801c2.12158-3.77295,6.2002-6.32715,10.81885-6.32715Z" class="c1" stroke-width="0" transform="translate(472.99237 -122.00466)" stroke-linejoin="miter" stroke-miterlimit="2" fill="#ffffff" stroke="#ffffff"></path> <path d="M113.64185,107.98572c-2.01465-1.21191-4.53809-1.08105-6.4624.26953-2.01758,1.41602-4.47314,2.25-7.10742,2.25049v-.00049c-2.63477,0-5.09033-.83398-7.1084-2.25049-1.92432-1.35059-4.44775-1.48145-6.4624-.26953-3.64404,2.19238-3.82129,7.39941-.35107,9.85742,3.95703,2.80273,8.77344,4.45361,13.9209,4.4541v.00049c5.14795,0,9.96436-1.65137,13.92188-4.4541,3.47021-2.45801,3.29297-7.66504-.35107-9.85742Z" class="c1" stroke-width="0" transform="translate(472.99237 -122.00466)" stroke-linejoin="miter" stroke-miterlimit="2" fill="#ffffff" stroke="#ffffff"></path> <path d="M112.2229,98.21082c0-2.13965-.55078-4.14795-1.51172-5.89551h-21.45801c-.98291,1.74756-1.54785,3.75586-1.54785,5.89551,0,3.30713-2.66016,5.96777-5.82373,5.96777h36.23682c-3.23535,0-5.89551-2.66064-5.89551-5.96777Z" class="c3" stroke-width="0" transform="translate(472.99237 -122.00466)" stroke-linejoin="miter" stroke-miterlimit="2" fill="#3758ff" stroke="#3758ff"></path> <path d="M118.11841,92.31531h-7.40723c.96094,1.74756,1.51172,3.75586,1.51172,5.89551,0,3.30713,2.66016,5.96777,5.89551,5.96777,3.30713,0,5.96777-2.66064,5.96777-5.96777,0-3.23535-2.66064-5.89551-5.96777-5.89551Z" class="c2" stroke-width="0" transform="translate(472.99237 -122.00466)" stroke-linejoin="miter" stroke-miterlimit="2" fill="#a1ff00" stroke="#a1ff00"></path> <path d="M87.70532,98.21082c0-2.13965.56494-4.14795,1.54785-5.89551h-7.37158c-3.30713,0-5.96777,2.66016-5.96777,5.89551,0,3.30713,2.66064,5.96777,5.96777,5.96777,3.16357,0,5.82373-2.66064,5.82373-5.96777Z" class="c2" stroke-width="0" transform="translate(472.99237 -122.00466)" stroke-linejoin="miter" stroke-miterlimit="2" fill="#a1ff00" stroke="#a1ff00"></path> <path d="M113.64185,107.98572c-2.01465-1.21191-4.53809-1.08105-6.4624.26953-2.01758,1.41602-4.47314,2.25-7.10742,2.25049v-.00049c-2.63477,0-5.09033-.83398-7.1084-2.25049-1.92432-1.35059-4.44775-1.48145-6.4624-.26953-3.64404,2.19238-3.82129,7.39941-.35107,9.85742,3.95703,2.80273,8.77344,4.45361,13.9209,4.4541v.00049c5.14795,0,9.96436-1.65137,13.92188-4.4541,3.47021-2.45801,3.29297-7.66504-.35107-9.85742Z" class="c3" stroke-width="0" transform="translate(472.99237 -122.00466)" stroke-linejoin="miter" stroke-miterlimit="2" fill="#3758ff" stroke="#3758ff"></path> </g>
        <g id="path686525" aria-label="l" transform="translate(0 304.95016) translate(676.15595795 12.243200000000002) scale(1.57) translate(-604.58581 66.24)"> <path d="M94.06105,116.34329v-54.29266c0-3.31232,2.66431-5.97656,5.97656-5.97656,3.24023,0,5.83252,2.66425,5.83252,5.97656v54.29266c.07202,3.31232-2.59229,5.9765-5.83252,5.9765-3.31226,0-5.97656-2.66418-5.97656-5.9765Z" class="c1" stroke-width="0" transform="translate(510.52476 -122.31407)" stroke-linejoin="miter" stroke-miterlimit="2" fill="#ffffff" stroke="#ffffff"></path> </g>
        <g id="path686527" aria-label="y" transform="translate(0 304.95016) translate(717.4092779499998 41.85968) scale(1.57) translate(-625.86181 47.376)"> <path d="M117.62697,74.9447c-3.24023,0-5.83252,2.66406-5.83252,5.97656v17.78516c0,6.76855-5.54443,12.24121-12.24121,12.24121-6.76855,0-12.31299-5.47266-12.31299-12.24121v-17.78516c0-3.3125-2.66406-5.97656-5.97607-5.97656-3.24072,0-5.90479,2.66406-5.90479,5.97656v17.78516c0,7.19873,3.25635,13.66943,8.33984,18.08301,4.27344,3.70947,9.83643,5.96729,15.854,5.96729h-.14355c6.76855,0,12.38477,5.69531,12.38477,12.46387,0,3.3125,2.59229,5.97656,5.83252,5.97656,3.31201,0,5.97656-2.66406,5.97656-5.97656v-54.29932c0-3.3125-2.66455-5.97656-5.97656-5.97656Z" class="c1" stroke-width="0" transform="translate(550.50242 -122.3207)" stroke-linejoin="miter" stroke-miterlimit="2" fill="#ffffff" stroke="#ffffff"></path> <path d="M123.60011,98.7201c0,7.2998-3.25366,13.83496-8.38306,18.25195-4.26709-3.73682-9.81128-6.02441-15.80737-6.02441-4.46484,0-8.64111,1.22412-12.24121,3.31201-1.2334.73242-2.39062,1.58496-3.46924,2.52979,4.27344,3.70947,9.83643,5.96729,15.854,5.96729,4.46484,0,8.64111-1.22412,12.24121-3.31201v15.77588c0,3.3125,2.59229,5.97656,5.83252,5.97656,3.31201,0,5.97656-2.66406,5.97656-5.97656v-36.50049h-.00342Z" class="c2" stroke-width="0" transform="translate(550.50242 -122.3207)" stroke-linejoin="miter" stroke-miterlimit="2" fill="#a1ff00" stroke="#a1ff00"></path> <path d="M111.79433,135.22046c0,3.3125,2.59229,5.97656,5.83252,5.97656,3.31201,0,5.97656-2.66406,5.97656-5.97656,0-7.22021-3.27588-13.77441-8.38623-18.24854-1.06543.91748-2.20703,1.75049-3.42285,2.47266-3.6001,2.08789-7.77637,3.31201-12.24121,3.31201h-.14355c6.76855,0,12.38477,5.69531,12.38477,12.46387Z" class="c3" stroke-width="0" transform="translate(550.50242 -122.3207)" stroke-linejoin="miter" stroke-miterlimit="2" fill="#3758ff" stroke="#3758ff"></path> </g>
      </g>
      <image xlink:href="https://app.brandmark.io/nounpreview/540022.png" id="icon" style="display: none;" x="0" y="0"></image>
    </g>
  </g>
</svg>